<?xml version="1.0" encoding="UTF-8"?>
<svg xmlns="http://www.w3.org/2000/svg" width="512" height="512" viewBox="0 0 512 512"><g><path d="M476,32H36A28.031,28.031,0,0,0,8,60V388a28.031,28.031,0,0,0,28,28H188.18l-9.6,24H136a8,8,0,0,0-8,8v24a8,8,0,0,0,8,8H376a8,8,0,0,0,8-8V448a8,8,0,0,0-8-8H333.42l-9.6-24H476a28.031,28.031,0,0,0,28-28V60A28.031,28.031,0,0,0,476,32ZM368,456v8H144v-8ZM195.82,440l9.6-24H306.58l9.6,24ZM488,388a12.01,12.01,0,0,1-12,12H36a12.01,12.01,0,0,1-12-12V368H488Zm0-36H24V60A12.01,12.01,0,0,1,36,48H476a12.01,12.01,0,0,1,12,12Z"/><path d="M236,64H68A28.031,28.031,0,0,0,40,92V308a28.031,28.031,0,0,0,28,28H236a28.031,28.031,0,0,0,28-28V92A28.031,28.031,0,0,0,236,64ZM216,320H200V288a8,8,0,0,0-16,0v32H120V288a8,8,0,0,0-16,0v32H88V280a32.036,32.036,0,0,1,32-32h9.38a23.99,23.99,0,0,0,45.24,0H184a32.036,32.036,0,0,1,32,32ZM126.35,168.28c12.94,0,32.94-2.34,57.65-12.79V184a32,32,0,0,1-64,0V168.08C121.88,168.2,123.99,168.28,126.35,168.28ZM120,152.04V152a32.036,32.036,0,0,1,32-32c12.65,0,23.86,8.04,29.01,19.34-19.84,8.84-36.12,11.77-46.71,12.62A92.371,92.371,0,0,1,120,152.04Zm40,79.28V240a8,8,0,0,1-16,0v-8.68a47.4,47.4,0,0,0,16,0ZM248,308a12.01,12.01,0,0,1-12,12h-4V280a48.051,48.051,0,0,0-48-48h-8v-6.46A48.012,48.012,0,0,0,200,184V152c0-.23-.01-.45-.03-.68a49.189,49.189,0,0,0-13.93-32.66A47.054,47.054,0,0,0,152,104a48.051,48.051,0,0,0-48,48v32a48.012,48.012,0,0,0,24,41.54V232h-8a48.051,48.051,0,0,0-48,48v40H68a12.01,12.01,0,0,1-12-12V92A12.01,12.01,0,0,1,68,80H236a12.01,12.01,0,0,1,12,12Z"/><path d="M444,64H308a28.032,28.032,0,0,0-28,28V308a28.032,28.032,0,0,0,28,28H444a28.032,28.032,0,0,0,28-28V92A28.032,28.032,0,0,0,444,64Zm12,244a12.013,12.013,0,0,1-12,12H308a12.013,12.013,0,0,1-12-12V120H456ZM296,104V92a12.013,12.013,0,0,1,12-12H444a12.013,12.013,0,0,1,12,12v12Z"/><path d="M312,176h32a8,8,0,0,0,8-8V144a8,8,0,0,0-8-8H312a8,8,0,0,0-8,8v24A8,8,0,0,0,312,176Zm8-24h16v8H320Z"/><path d="M368,152h72a8,8,0,0,0,0-16H368a8,8,0,0,0,0,16Z"/><path d="M368,176h32a8,8,0,0,0,0-16H368a8,8,0,0,0,0,16Z"/><path d="M312,224h32a8,8,0,0,0,8-8V192a8,8,0,0,0-8-8H312a8,8,0,0,0-8,8v24A8,8,0,0,0,312,224Zm8-24h16v8H320Z"/><path d="M368,200h72a8,8,0,0,0,0-16H368a8,8,0,0,0,0,16Z"/><path d="M368,224h32a8,8,0,0,0,0-16H368a8,8,0,0,0,0,16Z"/><path d="M312,272h32a8,8,0,0,0,8-8V240a8,8,0,0,0-8-8H312a8,8,0,0,0-8,8v24A8,8,0,0,0,312,272Zm8-24h16v8H320Z"/><path d="M368,248h72a8,8,0,0,0,0-16H368a8,8,0,0,0,0,16Z"/><path d="M368,272h32a8,8,0,0,0,0-16H368a8,8,0,0,0,0,16Z"/></g></svg>
