<?xml version="1.0" encoding="UTF-8"?>
<svg xmlns="http://www.w3.org/2000/svg" id="Icons" viewBox="0 0 74 74" width="512" height="512"><path d="M45.388,72l-.068,0a1,1,0,0,1-.851-.6L36.914,53.761a1,1,0,1,1,1.837-.788L45.538,68.81l3.3-5.5a1,1,0,0,1,1.076-.461l6.26,1.4L49.992,49.818a1,1,0,1,1,1.838-.788l6.955,16.225a1,1,0,0,1-1.138,1.37l-7.463-1.667-3.938,6.557A1,1,0,0,1,45.388,72Z"/><path d="M28.612,72a1,1,0,0,1-.858-.485l-3.938-6.557-7.463,1.667a1,1,0,0,1-1.138-1.37L22.17,49.03a1,1,0,0,1,1.838.788L17.823,64.247l6.26-1.4a1,1,0,0,1,1.076.461l3.3,5.5,6.787-15.837a1,1,0,1,1,1.837.788L29.531,71.394a1,1,0,0,1-.851.6Z"/><path d="M59.43,19.26A1,1,0,0,1,58.759,19,7.818,7.818,0,0,1,57.24,17.26a5.494,5.494,0,0,1-.487-1.15,1,1,0,1,1,1.914-.58,3.512,3.512,0,0,0,.3.723A6.182,6.182,0,0,0,60.1,17.519a1,1,0,0,1-.671,1.741Z"/><path d="M30.866,55.858a4.086,4.086,0,0,1-1.041-.131c-1.547-.412-2.572-1.669-3.563-2.886A8.257,8.257,0,0,0,24.321,50.9a5.273,5.273,0,0,0-1.448-.5c-.407-.089-.832-.159-1.257-.229-1.533-.253-3.117-.515-4.226-1.633s-1.374-2.693-1.627-4.228a8.407,8.407,0,0,0-.729-2.7,8.339,8.339,0,0,0-1.944-1.938c-1.216-.992-2.475-2.018-2.886-3.565a7.282,7.282,0,0,1,.705-4.4,8.563,8.563,0,0,0,.731-2.777,8.564,8.564,0,0,0-.731-2.776,7.286,7.286,0,0,1-.7-4.4c.411-1.547,1.669-2.573,2.886-3.565a8.312,8.312,0,0,0,1.945-1.94,8.423,8.423,0,0,0,.729-2.7,7.387,7.387,0,0,1,1.616-4.23,7.386,7.386,0,0,1,4.235-1.621,8.439,8.439,0,0,0,2.705-.73,8.331,8.331,0,0,0,1.937-1.943c.993-1.217,2.019-2.476,3.566-2.887,1.483-.4,2.969.16,4.407.7A8.516,8.516,0,0,0,37,3.57a8.516,8.516,0,0,0,2.77-.733,7.249,7.249,0,0,1,4.411-.7A4.815,4.815,0,0,1,46.2,3.313a1,1,0,1,1-1.352,1.474,2.867,2.867,0,0,0-1.181-.721,5.872,5.872,0,0,0-3.186.642A10.032,10.032,0,0,1,37,5.57a10.032,10.032,0,0,1-3.477-.862,5.87,5.87,0,0,0-3.182-.643,5.974,5.974,0,0,0-2.534,2.219A9.767,9.767,0,0,1,25.322,8.7a9.888,9.888,0,0,1-3.384.972,5.989,5.989,0,0,0-3.144,1.062,6,6,0,0,0-1.057,3.139,9.9,9.9,0,0,1-.971,3.382,9.817,9.817,0,0,1-2.412,2.488,5.958,5.958,0,0,0-2.218,2.529,5.911,5.911,0,0,0,.644,3.182,10.073,10.073,0,0,1,.86,3.481,10.084,10.084,0,0,1-.86,3.482,5.909,5.909,0,0,0-.644,3.182,5.976,5.976,0,0,0,2.218,2.529,9.813,9.813,0,0,1,2.411,2.484,9.907,9.907,0,0,1,.971,3.373,5.93,5.93,0,0,0,1.069,3.141,5.886,5.886,0,0,0,3.136,1.072c.461.077.921.153,1.364.25a7.109,7.109,0,0,1,2.008.717,9.707,9.707,0,0,1,2.5,2.418,5.944,5.944,0,0,0,2.524,2.215,5.9,5.9,0,0,0,3.181-.643,14.377,14.377,0,0,1,2.475-.764,5.371,5.371,0,0,1,2.014,0,14.377,14.377,0,0,1,2.475.764,5.945,5.945,0,0,0,3.183.643,5.96,5.96,0,0,0,2.523-2.215,9.7,9.7,0,0,1,2.493-2.415,7.105,7.105,0,0,1,2.012-.719c.446-.1.906-.174,1.365-.25A5.942,5.942,0,0,0,55.2,47.123a5.944,5.944,0,0,0,1.06-3.134,9.892,9.892,0,0,1,.971-3.379,9.8,9.8,0,0,1,2.412-2.487,5.972,5.972,0,0,0,2.218-2.53,5.907,5.907,0,0,0-.644-3.181,10.084,10.084,0,0,1-.86-3.482,10.1,10.1,0,0,1,.872-3.51c.108-.285.216-.569.314-.851a1,1,0,0,1,1.888.662c-.1.3-.218.6-.332.9a8.576,8.576,0,0,0-.742,2.8,8.563,8.563,0,0,0,.731,2.777,7.28,7.28,0,0,1,.7,4.4c-.411,1.548-1.67,2.574-2.886,3.566a8.331,8.331,0,0,0-1.945,1.94,8.418,8.418,0,0,0-.729,2.7c-.251,1.531-.51,3.115-1.619,4.224a7.35,7.35,0,0,1-4.234,1.63c-.425.07-.849.14-1.258.229a5.274,5.274,0,0,0-1.451.5,8.263,8.263,0,0,0-1.936,1.942c-.991,1.217-2.016,2.474-3.561,2.885a7.3,7.3,0,0,1-4.4-.7,12.858,12.858,0,0,0-2.125-.668,3.376,3.376,0,0,0-1.306,0,12.858,12.858,0,0,0-2.125.668A9.813,9.813,0,0,1,30.866,55.858Z"/><path d="M54.46,10.18a1.075,1.075,0,0,1-.342-.056,12.977,12.977,0,0,0-2.1-.465c-.411-.068-.82-.137-1.217-.221a1,1,0,1,1,.412-1.957c.369.079.751.142,1.134.206a14.6,14.6,0,0,1,2.4.54,1,1,0,0,1-.293,1.953Z"/><path d="M37,47.252A18.144,18.144,0,1,1,55.144,29.109,18.165,18.165,0,0,1,37,47.252Zm0-34.287A16.144,16.144,0,1,0,53.144,29.109,16.163,16.163,0,0,0,37,12.965Z"/><path d="M42.563,38.124a1,1,0,0,1-.466-.115L37,35.33l-5.1,2.679a1,1,0,0,1-1.451-1.054l.973-5.676L27.3,27.26a1,1,0,0,1,.554-1.706l5.7-.828L36.1,19.563a1.041,1.041,0,0,1,1.794,0l2.548,5.163,5.7.828A1,1,0,0,1,46.7,27.26l-4.123,4.019.973,5.676a1,1,0,0,1-.985,1.169ZM37,33.2a1,1,0,0,1,.465.114L41.234,35.3l-.72-4.2a1,1,0,0,1,.288-.885l3.049-2.972-4.214-.612a1,1,0,0,1-.753-.547L37,22.264l-1.884,3.819a1,1,0,0,1-.753.547l-4.214.612L33.2,30.214a1,1,0,0,1,.288.885l-.72,4.2,3.769-1.982A1,1,0,0,1,37,33.2Z"/></svg>
